<svg xmlns="http://www.w3.org/2000/svg" width="88.176" height="29.974" viewBox="0 0 88.176 29.974">
  <g id="ZoTok_Logo" transform="translate(-483.089 -826.374)">
    <path id="Union_122" data-name="Union 122" d="M24.326,21.7a10.327,10.327,0,0,1-6.51-2.5,8.571,8.571,0,0,1,0-12.124c3.342-3.342,10.014-3.289,13.358.053a8.588,8.588,0,0,1,0,12.123c-.143.14-.3.285-.487.445l-6.361,5.314Zm-3.9-12.133c-.065.064-.127.129-.186.2a5.329,5.329,0,0,0,3.916,8.9h.184v1.769A19.4,19.4,0,0,0,27.966,17.1c1.321-1.667,1.7-2.83,1.514-4.4a5.33,5.33,0,0,0-9.058-3.136ZM0,22.348,7.216,9.286H2.238L.644,4.591H15.309L8.139,17.63h4.676L15,22.348Zm21.126-8.878a.918.918,0,1,1,.919.918A.918.918,0,0,1,21.127,13.469Zm4.9,0a.918.918,0,1,1,.917.917A.917.917,0,0,1,26.025,13.469Zm-2.449,0a.918.918,0,1,1,.917.917A.917.917,0,0,1,23.576,13.469Zm2.2-10.243c-.015-.015-.03-.032-.045-.049l-.015-.016a1.849,1.849,0,0,0,0-2.551c.016-.019.033-.036.051-.054l.008-.009a1.887,1.887,0,0,1,3.227,1.339,1.83,1.83,0,0,1-.547,1.34,1.918,1.918,0,0,1-2.679,0ZM26.563.971A.536.536,0,1,0,27.1.435.536.536,0,0,0,26.563.971ZM20.449,3.226a1.836,1.836,0,0,1-.547-1.34A1.829,1.829,0,0,1,20.449.546a1.913,1.913,0,0,1,2.679,0l.015.016.044.047a1.85,1.85,0,0,0,0,2.552l-.058.061a1.918,1.918,0,0,1-2.682,0Zm.8-2.254a.536.536,0,1,0,.536-.536A.536.536,0,0,0,21.249.971Z" transform="translate(483.088 826.375)" fill="#589981"/>
    <path id="Union_123" data-name="Union 123" d="M56.389,25.048a.328.328,0,0,1,.341-.328.322.322,0,0,1,.334.328.332.332,0,0,1-.334.334A.338.338,0,0,1,56.389,25.048Zm-10,.085a1.59,1.59,0,0,1-.617-.636,1.975,1.975,0,0,1-.224-.956,2,2,0,0,1,.218-.953,1.52,1.52,0,0,1,.612-.631,1.823,1.823,0,0,1,.9-.219,1.767,1.767,0,0,1,.884.217,1.512,1.512,0,0,1,.59.6,1.761,1.761,0,0,1,.208.861c0,.107-.008.225-.021.349h-2.8a1.1,1.1,0,0,0,1.138,1.1,1.073,1.073,0,0,0,.631-.176.925.925,0,0,0,.355-.471H48.9a1.518,1.518,0,0,1-.563.824,1.706,1.706,0,0,1-1.05.316A1.774,1.774,0,0,1,46.393,25.133Zm.114-2.624a1.157,1.157,0,0,0-.355.782h2.213a1.055,1.055,0,0,0-.147-.573.959.959,0,0,0-.4-.365,1.246,1.246,0,0,0-.56-.124A1.083,1.083,0,0,0,46.507,22.509ZM29.443,25.158a1.363,1.363,0,0,1-.515-.505V25.3h-.581V20.566h.581v1.881a1.365,1.365,0,0,1,.525-.513,1.544,1.544,0,0,1,.787-.2,1.64,1.64,0,0,1,.851.224,1.586,1.586,0,0,1,.594.631,1.97,1.97,0,0,1,.218.944,2.017,2.017,0,0,1-.218.945,1.6,1.6,0,0,1-1.445.878A1.55,1.55,0,0,1,29.443,25.158Zm.083-2.759a1.132,1.132,0,0,0-.434.454,1.41,1.41,0,0,0-.164.687,1.435,1.435,0,0,0,.164.695,1.133,1.133,0,0,0,.434.453,1.171,1.171,0,0,0,.592.158,1.157,1.157,0,0,0,.6-.158,1.116,1.116,0,0,0,.432-.453,1.469,1.469,0,0,0,.16-.7,1.429,1.429,0,0,0-.16-.691,1.089,1.089,0,0,0-.432-.447,1.178,1.178,0,0,0-.6-.154A1.151,1.151,0,0,0,29.526,22.4ZM3.388,25.133a1.578,1.578,0,0,1-.617-.636,1.953,1.953,0,0,1-.224-.956,1.981,1.981,0,0,1,.218-.953,1.515,1.515,0,0,1,.61-.631,1.823,1.823,0,0,1,.9-.219,1.767,1.767,0,0,1,.884.217,1.5,1.5,0,0,1,.59.6,1.761,1.761,0,0,1,.208.861c0,.107-.008.225-.019.349h-2.8a1.1,1.1,0,0,0,1.138,1.1,1.077,1.077,0,0,0,.631-.176.936.936,0,0,0,.355-.471h.627a1.529,1.529,0,0,1-.563.824,1.706,1.706,0,0,1-1.05.316A1.775,1.775,0,0,1,3.388,25.133ZM3.5,22.509a1.149,1.149,0,0,0-.355.782H5.36a1.072,1.072,0,0,0-.147-.573.959.959,0,0,0-.4-.365,1.255,1.255,0,0,0-.561-.124A1.079,1.079,0,0,0,3.5,22.509Zm50.089,2.709a1.2,1.2,0,0,1-.505-.384,1.014,1.014,0,0,1-.2-.567h.6a.6.6,0,0,0,.247.43.942.942,0,0,0,.579.166.832.832,0,0,0,.523-.147.447.447,0,0,0,.193-.37.369.369,0,0,0-.2-.343,2.929,2.929,0,0,0-.635-.22,4.646,4.646,0,0,1-.635-.206,1.154,1.154,0,0,1-.423-.315.811.811,0,0,1-.177-.546.836.836,0,0,1,.16-.494,1.1,1.1,0,0,1,.455-.355,1.648,1.648,0,0,1,.671-.131,1.427,1.427,0,0,1,.94.3,1.057,1.057,0,0,1,.384.8h-.583a.6.6,0,0,0-.22-.44.98.98,0,0,0-1.04-.033.414.414,0,0,0-.185.351.386.386,0,0,0,.112.284.828.828,0,0,0,.282.179c.114.044.27.095.471.15a5.218,5.218,0,0,1,.614.2,1.067,1.067,0,0,1,.407.3.8.8,0,0,1,.176.517.9.9,0,0,1-.16.519,1.065,1.065,0,0,1-.45.36,1.624,1.624,0,0,1-.67.131A1.793,1.793,0,0,1,53.591,25.218Zm-3.338,0a1.2,1.2,0,0,1-.505-.384,1.014,1.014,0,0,1-.2-.567h.6a.6.6,0,0,0,.245.43.951.951,0,0,0,.581.166.836.836,0,0,0,.523-.147.447.447,0,0,0,.193-.37.369.369,0,0,0-.2-.343,2.969,2.969,0,0,0-.635-.22,4.559,4.559,0,0,1-.635-.206,1.138,1.138,0,0,1-.423-.315.811.811,0,0,1-.177-.546.836.836,0,0,1,.16-.494,1.1,1.1,0,0,1,.453-.355,1.657,1.657,0,0,1,.673-.131,1.431,1.431,0,0,1,.94.3,1.057,1.057,0,0,1,.384.8h-.583a.6.6,0,0,0-.22-.44.98.98,0,0,0-1.04-.033.414.414,0,0,0-.185.351.386.386,0,0,0,.112.284.81.81,0,0,0,.282.179c.114.044.27.095.471.15a5.339,5.339,0,0,1,.614.2,1.067,1.067,0,0,1,.407.3.8.8,0,0,1,.176.517.9.9,0,0,1-.16.519,1.066,1.066,0,0,1-.45.36,1.624,1.624,0,0,1-.67.131A1.787,1.787,0,0,1,50.254,25.218Zm-12.971,0a1.2,1.2,0,0,1-.505-.384,1.014,1.014,0,0,1-.2-.567h.6a.591.591,0,0,0,.247.43.942.942,0,0,0,.579.166.833.833,0,0,0,.523-.147.447.447,0,0,0,.193-.37.366.366,0,0,0-.2-.343,2.929,2.929,0,0,0-.635-.22,4.65,4.65,0,0,1-.635-.206,1.154,1.154,0,0,1-.423-.315.81.81,0,0,1-.176-.546.834.834,0,0,1,.158-.494,1.1,1.1,0,0,1,.455-.355,1.641,1.641,0,0,1,.671-.131,1.427,1.427,0,0,1,.94.3,1.057,1.057,0,0,1,.384.8h-.583a.6.6,0,0,0-.22-.44.98.98,0,0,0-1.04-.033.414.414,0,0,0-.185.351.386.386,0,0,0,.112.284.81.81,0,0,0,.282.179c.114.044.27.095.471.15a5.217,5.217,0,0,1,.614.2,1.066,1.066,0,0,1,.407.3.8.8,0,0,1,.176.517.894.894,0,0,1-.16.519,1.065,1.065,0,0,1-.45.36,1.624,1.624,0,0,1-.67.131A1.786,1.786,0,0,1,37.282,25.218Zm-19.238-.093a1.611,1.611,0,0,1-.6-.646,2.02,2.02,0,0,1-.218-.948,1.98,1.98,0,0,1,.218-.943,1.576,1.576,0,0,1,.6-.629,1.648,1.648,0,0,1,.849-.224,1.538,1.538,0,0,1,.8.2,1.317,1.317,0,0,1,.505.5v-.639h.589v3.5H20.2v-.652a1.385,1.385,0,0,1-.515.509,1.546,1.546,0,0,1-.8.2A1.569,1.569,0,0,1,18.044,25.125Zm.369-2.729a1.1,1.1,0,0,0-.428.447,1.429,1.429,0,0,0-.16.691,1.455,1.455,0,0,0,.16.7,1.123,1.123,0,0,0,.428.455,1.168,1.168,0,0,0,.6.156,1.184,1.184,0,0,0,.6-.156,1.13,1.13,0,0,0,.432-.455,1.441,1.441,0,0,0,.158-.693,1.425,1.425,0,0,0-.158-.691,1.15,1.15,0,0,0-.432-.452,1.184,1.184,0,0,0-.6-.156A1.166,1.166,0,0,0,18.412,22.4Zm-7.82,2.822a1.217,1.217,0,0,1-.507-.384,1.028,1.028,0,0,1-.2-.567h.6a.6.6,0,0,0,.245.43.942.942,0,0,0,.579.166.838.838,0,0,0,.525-.147.452.452,0,0,0,.193-.37A.367.367,0,0,0,11.818,24a2.944,2.944,0,0,0-.633-.22,4.684,4.684,0,0,1-.637-.206,1.154,1.154,0,0,1-.423-.315.821.821,0,0,1-.176-.546.836.836,0,0,1,.16-.494,1.1,1.1,0,0,1,.453-.355,1.658,1.658,0,0,1,.673-.131,1.434,1.434,0,0,1,.94.3,1.055,1.055,0,0,1,.382.8h-.581a.6.6,0,0,0-.222-.44.812.812,0,0,0-.54-.167.822.822,0,0,0-.5.133.414.414,0,0,0-.185.351.379.379,0,0,0,.112.284.793.793,0,0,0,.282.179,4.9,4.9,0,0,0,.471.15,5.343,5.343,0,0,1,.614.2,1.066,1.066,0,0,1,.407.3.806.806,0,0,1,.176.517.894.894,0,0,1-.16.519,1.06,1.06,0,0,1-.451.36,1.615,1.615,0,0,1-.668.131A1.786,1.786,0,0,1,10.593,25.218Zm22.75-.038a1.224,1.224,0,0,1-.515-.51,1.67,1.67,0,0,1-.189-.824V21.793h.575v1.976a1.118,1.118,0,0,0,.262.8.936.936,0,0,0,.716.278.96.96,0,0,0,.737-.287,1.182,1.182,0,0,0,.268-.838V21.793h.583V25.3H35.2V24.78a1.124,1.124,0,0,1-.463.418,1.43,1.43,0,0,1-.656.151A1.565,1.565,0,0,1,33.342,25.18Zm10.9.12V23.316a1.122,1.122,0,0,0-.262-.8.933.933,0,0,0-.716-.278.963.963,0,0,0-.733.288,1.183,1.183,0,0,0-.27.837V25.3h-.583V21.793h.583v.5a1.153,1.153,0,0,1,.469-.415,1.452,1.452,0,0,1,.656-.146,1.424,1.424,0,0,1,1.036.386,1.492,1.492,0,0,1,.4,1.117V25.3Zm-4.137,0V21.793h.583V25.3Zm-14.8,0L23.927,23.75V25.3h-.583V20.564h.583v2.782l1.349-1.553h.814L24.438,23.54,26.1,25.3Zm-3.531,0V20.564h.583V25.3Zm-5.551,0a1.051,1.051,0,0,1-.729-.224.967.967,0,0,1-.243-.737V22.271h-.455v-.478h.455V20.91h.583v.884h.915v.478h-.915v2.067a.482.482,0,0,0,.108.36.527.527,0,0,0,.376.106h.43V25.3Zm-8.393,0a1.045,1.045,0,0,1-.727-.224.967.967,0,0,1-.245-.737V22.271H6.4v-.478h.453V20.91h.583v.884h.915v.478H7.438v2.067a.482.482,0,0,0,.11.36.523.523,0,0,0,.376.106h.428V25.3ZM0,25.3V20.84H.583v3.986H2.142V25.3ZM56.551,24l-.091-3.151H57L56.9,24Zm-47.68-2.52-.083-1.273h.563l-.077,1.273Zm31.251-.373a.4.4,0,0,1,.282-.677.358.358,0,0,1,.27.114.41.41,0,0,1,0,.563.359.359,0,0,1-.27.116A.378.378,0,0,1,40.122,21.108Zm11.411-3.349-4.81-6.444-1.781,2v4.44H40.226V0h4.716V7.382L51.461,0h5.244l-6.88,7.865,7.241,9.894ZM19.1,8.88C19.1,3.757,23.128,0,28.594,0s9.491,3.756,9.491,8.879-4.027,8.879-9.491,8.879S19.1,14,19.1,8.88Zm4.881,0a4.619,4.619,0,1,0,9.223,0,4.619,4.619,0,1,0-9.223,0ZM7.816,17.759V3.983H2.568V0H17.876V3.985H12.651V17.759Z" transform="translate(514.198 830.966)" fill="#333"/>
  </g>
</svg>
